<?xml version="1.0" encoding="UTF-8"?>
<svg xmlns="http://www.w3.org/2000/svg" viewBox="0 0 1200 1800" width="1200" height="1800">
  <!-- 全体的な背景 -->
  <rect x="0" y="0" width="1200" height="1800" fill="#ffffff" />
  
  <!-- ヘッダー部分 -->
  <rect x="0" y="0" width="1200" height="60" fill="#f0f0f0" stroke="#333" stroke-width="1" />
  <text x="10" y="35" font-family="Arial" font-size="18" font-weight="bold">対象プロセス: 地方自治体における申請処理業務フロー</text>
  <text x="580" y="35" font-family="Arial" font-size="14" font-weight="bold">更新日: 2025/3/15</text>
  <text x="830" y="35" font-family="Arial" font-size="14" font-weight="bold">承認: 総務部長</text>
  <text x="1030" y="35" font-family="Arial" font-size="14" font-weight="bold">作成: 業務改革推進課</text>

  <!-- カラムヘッダー -->
  <rect x="0" y="60" width="100" height="60" fill="#e0e0e0" stroke="#333" stroke-width="1" />
  <rect x="100" y="60" width="180" height="60" fill="#e0e0e0" stroke="#333" stroke-width="1" />
  <rect x="280" y="60" width="180" height="60" fill="#e0e0e0" stroke="#333" stroke-width="1" />
  <rect x="460" y="60" width="180" height="60" fill="#e0e0e0" stroke="#333" stroke-width="1" />
  <rect x="640" y="60" width="180" height="60" fill="#e0e0e0" stroke="#333" stroke-width="1" />
  <rect x="820" y="60" width="180" height="60" fill="#e0e0e0" stroke="#333" stroke-width="1" />
  <rect x="1000" y="60" width="200" height="60" fill="#e0e0e0" stroke="#333" stroke-width="1" />
  
  <text x="50" y="95" font-family="Arial" font-size="14" font-weight="bold" text-anchor="middle">フェーズ</text>
  <text x="190" y="95" font-family="Arial" font-size="14" font-weight="bold" text-anchor="middle">住民（申請者）</text>
  <text x="370" y="95" font-family="Arial" font-size="14" font-weight="bold" text-anchor="middle">窓口職員</text>
  <text x="550" y="95" font-family="Arial" font-size="14" font-weight="bold" text-anchor="middle">担当課職員</text>
  <text x="730" y="95" font-family="Arial" font-size="14" font-weight="bold" text-anchor="middle">審査担当者</text>
  <text x="910" y="95" font-family="Arial" font-size="14" font-weight="bold" text-anchor="middle">管理職・決裁者</text>
  <text x="1100" y="95" font-family="Arial" font-size="14" font-weight="bold" text-anchor="middle">システム</text>

  <!-- ===== フェーズ1: 申請受付 ===== -->
  <rect x="0" y="120" width="100" height="350" fill="#e3f2fd" stroke="#333" stroke-width="1" />
  <text x="50" y="295" font-family="Arial" font-size="14" font-weight="bold" text-anchor="middle" transform="rotate(-90,50,295)">フェーズ1: 申請受付</text>

  <!-- 背景グリッド -->
  <rect x="100" y="120" width="180" height="350" fill="#fcfcfc" stroke="#ddd" stroke-width="0.5" stroke-dasharray="3,3" />
  <rect x="280" y="120" width="180" height="350" fill="#fcfcfc" stroke="#ddd" stroke-width="0.5" stroke-dasharray="3,3" />
  <rect x="460" y="120" width="180" height="350" fill="#fcfcfc" stroke="#ddd" stroke-width="0.5" stroke-dasharray="3,3" />
  <rect x="640" y="120" width="180" height="350" fill="#fcfcfc" stroke="#ddd" stroke-width="0.5" stroke-dasharray="3,3" />
  <rect x="820" y="120" width="180" height="350" fill="#fcfcfc" stroke="#ddd" stroke-width="0.5" stroke-dasharray="3,3" />
  <rect x="1000" y="120" width="200" height="350" fill="#fcfcfc" stroke="#ddd" stroke-width="0.5" stroke-dasharray="3,3" />

  <!-- フローの開始マーカー -->
  <circle cx="190" cy="150" r="15" fill="#2196F3" stroke="#0D47A1" stroke-width="1.5" />
  <text x="190" y="154" font-family="Arial" font-size="14" font-weight="bold" fill="white" text-anchor="middle">開始</text>

  <!-- 住民（申請者） フェーズ1 -->
  <rect x="140" y="180" width="100" height="40" rx="3" ry="3" fill="#f5faff" stroke="#2196F3" stroke-width="1.5" />
  <text x="190" y="205" font-family="Arial" font-size="12" text-anchor="middle" font-weight="bold">1.1 申請書類準備</text>
  
  <rect x="140" y="230" width="100" height="40" rx="3" ry="3" fill="#f5faff" stroke="#2196F3" stroke-width="1.5" />
  <text x="190" y="248" font-family="Arial" font-size="12" text-anchor="middle">1.2 申請書提出</text>
  <text x="190" y="265" font-family="Arial" font-size="12" text-anchor="middle">必要書類提出</text>
  
  <rect x="140" y="300" width="100" height="40" rx="3" ry="3" fill="#f5faff" stroke="#2196F3" stroke-width="1.5" />
  <text x="190" y="318" font-family="Arial" font-size="12" text-anchor="middle">1.5 受付番号</text>
  <text x="190" y="335" font-family="Arial" font-size="12" text-anchor="middle">受領</text>
  
  <!-- 窓口職員 フェーズ1 -->
  <rect x="320" y="230" width="100" height="40" rx="3" ry="3" fill="#f5faff" stroke="#2196F3" stroke-width="1.5" />
  <text x="370" y="248" font-family="Arial" font-size="12" text-anchor="middle">1.3 申請書受付</text>
  <text x="370" y="265" font-family="Arial" font-size="12" text-anchor="middle">書類確認</text>
  
  <rect x="320" y="300" width="100" height="40" rx="3" ry="3" fill="#f5faff" stroke="#2196F3" stroke-width="1.5" />
  <text x="370" y="318" font-family="Arial" font-size="12" text-anchor="middle">1.4 受付番号発行</text>
  <text x="370" y="335" font-family="Arial" font-size="12" text-anchor="middle">申請者へ通知</text>
  
  <rect x="320" y="380" width="100" height="40" rx="3" ry="3" fill="#f5faff" stroke="#2196F3" stroke-width="1.5" />
  <text x="370" y="398" font-family="Arial" font-size="12" text-anchor="middle">1.6 担当課へ</text>
  <text x="370" y="415" font-family="Arial" font-size="12" text-anchor="middle">書類転送</text>
  
  <!-- 担当課職員 フェーズ1 -->
  <rect x="500" y="380" width="100" height="40" rx="3" ry="3" fill="#f5faff" stroke="#2196F3" stroke-width="1.5" />
  <text x="550" y="398" font-family="Arial" font-size="12" text-anchor="middle">1.7 申請書類</text>
  <text x="550" y="415" font-family="Arial" font-size="12" text-anchor="middle">受領・確認</text>
  
  <!-- システム フェーズ1 - 統一した青色 -->
  <!-- 申請情報DB -->
  <g class="database">
    <!-- Cylinder body -->
    <path d="M1050,230 L1050,280 A50,10 0 0,0 1150,280 L1150,230 Z" fill="#2196F3" stroke="#0D47A1" stroke-width="2" stroke-linejoin="round"/>
    <!-- Top ellipse -->
    <ellipse cx="1100" cy="230" rx="50" ry="10" fill="#2196F3" stroke="#0D47A1" stroke-width="2"/>
    <!-- Text -->
    <text x="1100" y="255" font-family="Arial" font-size="12" text-anchor="middle" fill="white" font-weight="bold">申請情報DB</text>
  </g>
  
  <!-- 受付管理DB -->
  <g class="database">
    <!-- Cylinder body -->
    <path d="M1050,300 L1050,350 A50,10 0 0,0 1150,350 L1150,300 Z" fill="#2196F3" stroke="#0D47A1" stroke-width="2" stroke-linejoin="round"/>
    <!-- Top ellipse -->
    <ellipse cx="1100" cy="300" rx="50" ry="10" fill="#2196F3" stroke="#0D47A1" stroke-width="2"/>
    <!-- Text -->
    <text x="1100" y="325" font-family="Arial" font-size="12" text-anchor="middle" fill="white" font-weight="bold">受付管理DB</text>
  </g>
  
  <!-- フェーズ1の矢印 - 垂直方向 - 修正：開始点の位置を調整 -->
  <path d="M190,165 L190,180" stroke="#333" stroke-width="1.5" marker-end="url(#arrow)" />
  <path d="M190,220 L190,230" stroke="#333" stroke-width="1.5" marker-end="url(#arrow)" />
  <path d="M190,270 L190,300" stroke="#333" stroke-width="1.5" marker-end="url(#arrow)" />
  <path d="M370,270 L370,300" stroke="#333" stroke-width="1.5" marker-end="url(#arrow)" />
  <path d="M370,340 L370,380" stroke="#333" stroke-width="1.5" marker-end="url(#arrow)" />
  
  <!-- フェーズ1の矢印 - 水平方向 -->
  <path d="M240,250 L320,250" stroke="#333" stroke-width="1.5" fill="none" marker-end="url(#arrow)" />
  
  <!-- 帳票表示 - 申請書 -->
  <rect x="260" y="230" width="40" height="15" fill="#FFF9C4" stroke="#FBC02D" stroke-width="1" />
  <text x="280" y="241" font-family="Arial" font-size="9" text-anchor="middle">申請書</text>
  
  <!-- 左に向かう矢印の修正 -->
  <path d="M320,320 L240,320" stroke="#333" stroke-width="1.5" fill="none" marker-end="url(#arrow)" />
  
  <!-- 帳票表示 - 受付票 -->
  <rect x="260" y="300" width="40" height="15" fill="#FFF9C4" stroke="#FBC02D" stroke-width="1" />
  <text x="280" y="311" font-family="Arial" font-size="9" text-anchor="middle">受付票</text>
  
  <path d="M420,400 L500,400" stroke="#333" stroke-width="1.5" fill="none" marker-end="url(#arrow)" />
  
  <!-- 帳票表示 - 申請書類一式 -->
  <rect x="435" y="380" width="60" height="15" fill="#FFF9C4" stroke="#FBC02D" stroke-width="1" />
  <text x="465" y="391" font-family="Arial" font-size="9" text-anchor="middle">申請書類一式</text>
  
  <!-- システムへの矢印 -->
  <path d="M420,250 L1050,250" stroke="#1E88E5" stroke-width="1.5" fill="none" marker-end="url(#system-arrow)" />
  <path d="M420,320 L1050,320" stroke="#1E88E5" stroke-width="1.5" fill="none" marker-end="url(#system-arrow)" />
  
  <!-- ===== フェーズ2: 申請内容確認・審査 ===== -->
  <rect x="0" y="470" width="100" height="400" fill="#e3f2fd" stroke="#333" stroke-width="1" />
  <text x="50" y="670" font-family="Arial" font-size="14" font-weight="bold" text-anchor="middle" transform="rotate(-90,50,670)">フェーズ2: 申請内容確認・審査</text>

  <!-- 背景グリッド -->
  <rect x="100" y="470" width="180" height="400" fill="#fcfcfc" stroke="#ddd" stroke-width="0.5" stroke-dasharray="3,3" />
  <rect x="280" y="470" width="180" height="400" fill="#fcfcfc" stroke="#ddd" stroke-width="0.5" stroke-dasharray="3,3" />
  <rect x="460" y="470" width="180" height="400" fill="#fcfcfc" stroke="#ddd" stroke-width="0.5" stroke-dasharray="3,3" />
  <rect x="640" y="470" width="180" height="400" fill="#fcfcfc" stroke="#ddd" stroke-width="0.5" stroke-dasharray="3,3" />
  <rect x="820" y="470" width="180" height="400" fill="#fcfcfc" stroke="#ddd" stroke-width="0.5" stroke-dasharray="3,3" />
  <rect x="1000" y="470" width="180" height="400" fill="#fcfcfc" stroke="#ddd" stroke-width="0.5" stroke-dasharray="3,3" />

  <!-- 住民（申請者） フェーズ2 -->
  <rect x="140" y="600" width="100" height="40" rx="3" ry="3" fill="#f5faff" stroke="#2196F3" stroke-width="1.5" />
  <text x="190" y="618" font-family="Arial" font-size="12" text-anchor="middle">2.3 追加資料提出</text>
  <text x="190" y="635" font-family="Arial" font-size="12" text-anchor="middle">（必要な場合）</text>
  
  <!-- 担当課職員 フェーズ2 -->
  <rect x="500" y="490" width="100" height="40" rx="3" ry="3" fill="#f5faff" stroke="#2196F3" stroke-width="1.5" />
  <text x="550" y="508" font-family="Arial" font-size="12" text-anchor="middle">2.1 申請内容確認</text>
  <text x="550" y="525" font-family="Arial" font-size="12" text-anchor="middle">必要書類確認</text>
  
  <!-- 申請内容確認の分岐（菱形） -->
  <polygon points="550,550 570,570 550,590 530,570" fill="#f5faff" stroke="#2196F3" stroke-width="1.5" />
  <text x="550" y="575" font-family="Arial" font-size="10" text-anchor="middle">追加資料</text>
  <text x="550" y="585" font-family="Arial" font-size="10" text-anchor="middle">必要？</text>
  <text x="515" y="570" font-family="Arial" font-size="10" text-anchor="middle">はい</text>
  <text x="585" y="570" font-family="Arial" font-size="10" text-anchor="middle">いいえ</text>
  
  <!-- 分岐による2つの処理：左側と右側 -->
  <rect x="420" y="600" width="100" height="40" rx="3" ry="3" fill="#f5faff" stroke="#2196F3" stroke-width="1.5" />
  <text x="470" y="618" font-family="Arial" font-size="12" text-anchor="middle">2.2 追加資料依頼</text>
  <text x="470" y="635" font-family="Arial" font-size="12" text-anchor="middle">（必要な場合）</text>
  
  <rect x="580" y="600" width="100" height="40" rx="3" ry="3" fill="#f5faff" stroke="#2196F3" stroke-width="1.5" />
  <text x="630" y="618" font-family="Arial" font-size="12" text-anchor="middle">2.4 申請内容</text>
  <text x="630" y="635" font-family="Arial" font-size="12" text-anchor="middle">審査準備</text>
  
  <rect x="500" y="680" width="100" height="40" rx="3" ry="3" fill="#f5faff" stroke="#2196F3" stroke-width="1.5" />
  <text x="550" y="698" font-family="Arial" font-size="12" text-anchor="middle">2.5 申請内容</text>
  <text x="550" y="715" font-family="Arial" font-size="12" text-anchor="middle">審査依頼</text>
  
  <!-- 審査担当者 フェーズ2 -->
  <rect x="680" y="680" width="100" height="40" rx="3" ry="3" fill="#f5faff" stroke="#2196F3" stroke-width="1.5" />
  <text x="730" y="698" font-family="Arial" font-size="12" text-anchor="middle">2.6 申請内容</text>
  <text x="730" y="715" font-family="Arial" font-size="12" text-anchor="middle">審査実施</text>
  
  <rect x="680" y="760" width="100" height="40" rx="3" ry="3" fill="#f5faff" stroke="#2196F3" stroke-width="1.5" />
  <text x="730" y="778" font-family="Arial" font-size="12" text-anchor="middle">2.7 審査結果</text>
  <text x="730" y="795" font-family="Arial" font-size="12" text-anchor="middle">記録・報告</text>
  
  <!-- システム フェーズ2 - 統一した青色 -->
  <!-- 申請状態DB -->
  <g class="database">
    <!-- Cylinder body -->
    <path d="M1050,490 L1050,540 A50,10 0 0,0 1150,540 L1150,490 Z" fill="#2196F3" stroke="#0D47A1" stroke-width="2" stroke-linejoin="round"/>
    <!-- Top ellipse -->
    <ellipse cx="1100" cy="490" rx="50" ry="10" fill="#2196F3" stroke="#0D47A1" stroke-width="2"/>
    <!-- Text -->
    <text x="1100" y="515" font-family="Arial" font-size="12" text-anchor="middle" fill="white" font-weight="bold">申請状態DB</text>
  </g>
  
  <!-- 審査情報DB -->
  <g class="database">
    <!-- Cylinder body -->
    <path d="M1050,760 L1050,810 A50,10 0 0,0 1150,810 L1150,760 Z" fill="#2196F3" stroke="#0D47A1" stroke-width="2" stroke-linejoin="round"/>
    <!-- Top ellipse -->
    <ellipse cx="1100" cy="760" rx="50" ry="10" fill="#2196F3" stroke="#0D47A1" stroke-width="2"/>
    <!-- Text -->
    <text x="1100" y="785" font-family="Arial" font-size="12" text-anchor="middle" fill="white" font-weight="bold">審査情報DB</text>
  </g>
  
  <!-- フェーズ2の矢印 - 垂直方向 -->
  <path d="M550,530 L550,550" stroke="#333" stroke-width="1.5" marker-end="url(#arrow)" />
  <path d="M730,720 L730,760" stroke="#333" stroke-width="1.5" marker-end="url(#arrow)" />
  
  <!-- フェーズ2の矢印 - 水平方向と分岐 - 修正部分 -->
  <!-- 左側への分岐 -->
  <path d="M530,570 L470,570 L470,600" stroke="#333" stroke-width="1.5" fill="none" marker-end="url(#arrow)" />
  
  <!-- 右側への分岐 -->
  <path d="M570,570 L630,570 L630,600" stroke="#333" stroke-width="1.5" fill="none" marker-end="url(#arrow)" />
  
  <!-- 住民への矢印 - 修正部分 -->
  <path d="M420,620 L240,620" stroke="#333" stroke-width="1.5" fill="none" marker-end="url(#arrow)" />
  
  <!-- 帳票表示 - 追加資料依頼 -->
  <rect x="325" y="600" width="70" height="15" fill="#E1F5FE" stroke="#29B6F6" stroke-width="1" />
  <text x="360" y="611" font-family="Arial" font-size="9" text-anchor="middle">追加資料依頼書</text>
  
  <!-- 住民からの矢印 - 修正部分 -->
  <path d="M240,620 L420,620" stroke="#333" stroke-width="1.5" fill="none" marker-end="url(#arrow)" />
  
  <!-- 帳票表示 - 追加資料 -->
  <rect x="320" y="620" width="50" height="15" fill="#FFF9C4" stroke="#FBC02D" stroke-width="1" />
  <text x="345" y="631" font-family="Arial" font-size="9" text-anchor="middle">追加資料</text>
  
  <!-- 合流の矢印 - 修正：2.2と2.4から2.5への接続を正しく修正 -->
  <path d="M470,640 L470,660 L510,660 L510,680" stroke="#333" stroke-width="1.5" fill="none" marker-end="url(#arrow)" />
  <path d="M630,640 L630,660 L590,660 L590,680" stroke="#333" stroke-width="1.5" fill="none" marker-end="url(#arrow)" />
  
  <path d="M600,700 L680,700" stroke="#333" stroke-width="1.5" fill="none" marker-end="url(#arrow)" />
  
  <!-- 帳票表示 - 審査依頼書 -->
  <rect x="615" y="680" width="60" height="15" fill="#E1F5FE" stroke="#29B6F6" stroke-width="1" />
  <text x="645" y="691" font-family="Arial" font-size="9" text-anchor="middle">審査依頼書</text>
  
  <!-- システムへの矢印 -->
  <path d="M600,510 L1050,510" stroke="#1E88E5" stroke-width="1.5" fill="none" marker-end="url(#system-arrow)" />
  <path d="M780,780 L1050,780" stroke="#1E88E5" stroke-width="1.5" fill="none" marker-end="url(#system-arrow)" />
  
  <!-- ===== フェーズ3: 決裁・承認 ===== -->
  <rect x="0" y="870" width="100" height="300" fill="#e3f2fd" stroke="#333" stroke-width="1" />
  <text x="50" y="1020" font-family="Arial" font-size="14" font-weight="bold" text-anchor="middle" transform="rotate(-90,50,1020)">フェーズ3: 決裁・承認</text>

  <!-- 背景グリッド -->
  <rect x="100" y="870" width="180" height="300" fill="#fcfcfc" stroke="#ddd" stroke-width="0.5" stroke-dasharray="3,3" />
  <rect x="280" y="870" width="180" height="300" fill="#fcfcfc" stroke="#ddd" stroke-width="0.5" stroke-dasharray="3,3" />
  <rect x="460" y="870" width="180" height="300" fill="#fcfcfc" stroke="#ddd" stroke-width="0.5" stroke-dasharray="3,3" />
  <rect x="640" y="870" width="180" height="300" fill="#fcfcfc" stroke="#ddd" stroke-width="0.5" stroke-dasharray="3,3" />
  <rect x="820" y="870" width="180" height="300" fill="#fcfcfc" stroke="#ddd" stroke-width="0.5" stroke-dasharray="3,3" />
  <rect x="1000" y="870" width="200" height="300" fill="#fcfcfc" stroke="#ddd" stroke-width="0.5" stroke-dasharray="3,3" />

  <!-- 担当課職員 フェーズ3 -->
  <rect x="500" y="890" width="100" height="40" rx="3" ry="3" fill="#f5faff" stroke="#2196F3" stroke-width="1.5" />
  <text x="550" y="908" font-family="Arial" font-size="12" text-anchor="middle">3.1 審査結果</text>
  <text x="550" y="925" font-family="Arial" font-size="12" text-anchor="middle">受領・確認</text>
  
  <rect x="500" y="950" width="100" height="40" rx="3" ry="3" fill="#f5faff" stroke="#2196F3" stroke-width="1.5" />
  <text x="550" y="968" font-family="Arial" font-size="12" text-anchor="middle">3.2 決裁依頼</text>
  <text x="550" y="985" font-family="Arial" font-size="12" text-anchor="middle">書類作成</text>
  
  <!-- 審査担当者 フェーズ3 -->
  <rect x="680" y="890" width="100" height="40" rx="3" ry="3" fill="#f5faff" stroke="#2196F3" stroke-width="1.5" />
  <text x="730" y="908" font-family="Arial" font-size="12" text-anchor="middle">3.0 決裁用</text>
  <text x="730" y="925" font-family="Arial" font-size="12" text-anchor="middle">報告書作成</text>
  
  <!-- 管理職・決裁者 フェーズ3 -->
  <rect x="860" y="950" width="100" height="40" rx="3" ry="3" fill="#f5faff" stroke="#2196F3" stroke-width="1.5" />
  <text x="910" y="968" font-family="Arial" font-size="12" text-anchor="middle">3.3 決裁書類確認</text>
  <text x="910" y="985" font-family="Arial" font-size="12" text-anchor="middle">内容審査</text>
  
  <!-- 決裁の分岐（菱形） -->
  <polygon points="910,1010 930,1030 910,1050 890,1030" fill="#f5faff" stroke="#2196F3" stroke-width="1.5" />
  <text x="910" y="1030" font-family="Arial" font-size="10" text-anchor="middle">承認？</text>
  <text x="875" y="1030" font-family="Arial" font-size="10" text-anchor="middle">却下</text>
  <text x="945" y="1030" font-family="Arial" font-size="10" text-anchor="middle">承認</text>
  
  <!-- 分岐による2つの処理：左側と右側 -->
  <rect x="800" y="1070" width="100" height="40" rx="3" ry="3" fill="#f5faff" stroke="#2196F3" stroke-width="1.5" />
  <text x="850" y="1088" font-family="Arial" font-size="12" text-anchor="middle">3.4a 決裁却下</text>
  <text x="850" y="1105" font-family="Arial" font-size="12" text-anchor="middle">理由記録</text>
  
  <rect x="920" y="1070" width="100" height="40" rx="3" ry="3" fill="#f5faff" stroke="#2196F3" stroke-width="1.5" />
  <text x="970" y="1088" font-family="Arial" font-size="12" text-anchor="middle">3.4b 決裁承認</text>
  <text x="970" y="1105" font-family="Arial" font-size="12" text-anchor="middle">承認記録</text>
  
  <rect x="500" y="1070" width="100" height="40" rx="3" ry="3" fill="#f5faff" stroke="#2196F3" stroke-width="1.5" />
  <text x="550" y="1088" font-family="Arial" font-size="12" text-anchor="middle">3.5 決裁結果</text>
  <text x="550" y="1105" font-family="Arial" font-size="12" text-anchor="middle">受領・確認</text>
  
  <!-- システム フェーズ3 - 統一した青色 -->
  <!-- 決裁情報DB -->
  <g class="database">
    <!-- Cylinder body -->
    <path d="M1050,950 L1050,1000 A50,10 0 0,0 1150,1000 L1150,950 Z" fill="#2196F3" stroke="#0D47A1" stroke-width="2" stroke-linejoin="round"/>
    <!-- Top ellipse -->
    <ellipse cx="1100" cy="950" rx="50" ry="10" fill="#2196F3" stroke="#0D47A1" stroke-width="2"/>
    <!-- Text -->
    <text x="1100" y="975" font-family="Arial" font-size="12" text-anchor="middle" fill="white" font-weight="bold">決裁情報DB</text>
  </g>
  
  <!-- 審査結果DB -->
  <g class="database">
    <!-- Cylinder body -->
    <path d="M1050,1070 L1050,1120 A50,10 0 0,0 1150,1120 L1150,1070 Z" fill="#2196F3" stroke="#0D47A1" stroke-width="2" stroke-linejoin="round"/>
    <!-- Top ellipse -->
    <ellipse cx="1100" cy="1070" rx="50" ry="10" fill="#2196F3" stroke="#0D47A1" stroke-width="2"/>
    <!-- Text -->
    <text x="1100" y="1095" font-family="Arial" font-size="12" text-anchor="middle" fill="white" font-weight="bold">審査結果DB</text>
  </g>
  
  <!-- フェーズ3の矢印 - 垂直方向 -->
  <path d="M550,930 L550,950" stroke="#333" stroke-width="1.5" marker-end="url(#arrow)" />
  <path d="M910,990 L910,1010" stroke="#333" stroke-width="1.5" marker-end="url(#arrow)" />
  
  <!-- フェーズ3の矢印 - 水平方向と分岐 -->
  <!-- 左に向かう矢印 -->
  <path d="M680,910 L600,910" stroke="#333" stroke-width="1.5" fill="none" marker-end="url(#arrow)" />
  
  <!-- 帳票表示 - 審査報告書 -->
  <rect x="615" y="890" width="60" height="15" fill="#E1F5FE" stroke="#29B6F6" stroke-width="1" />
  <text x="645" y="901" font-family="Arial" font-size="9" text-anchor="middle">審査報告書</text>
  
  <!-- 右に向かう矢印 -->
  <path d="M600,970 L860,970" stroke="#333" stroke-width="1.5" fill="none" marker-end="url(#arrow)" />
  
  <!-- 帳票表示 - 決裁稟議書 -->
  <rect x="710" y="950" width="60" height="15" fill="#E1F5FE" stroke="#29B6F6" stroke-width="1" />
  <text x="740" y="961" font-family="Arial" font-size="9" text-anchor="middle">決裁稟議書</text>
  
  <!-- 左側への分岐 -->
  <path d="M890,1030 L850,1030 L850,1070" stroke="#333" stroke-width="1.5" fill="none" marker-end="url(#arrow)" />
  
  <!-- 右側への分岐 -->
  <path d="M930,1030 L970,1030 L970,1070" stroke="#333" stroke-width="1.5" fill="none" marker-end="url(#arrow)" />
  
  <!-- 合流の矢印（修正：3.4aと3.4bからの矢印を箱の下から出すように修正） -->
  <path d="M850,1110 L850,1130 L650,1130 L650,1090 L600,1090" stroke="#333" stroke-width="1.5" fill="none" marker-end="url(#arrow)" />
  <path d="M970,1110 L970,1130 L650,1130" stroke="#333" stroke-width="1.5" fill="none" />
  
  <!-- 帳票表示 - 決裁結果 -->
  <rect x="700" y="1070" width="60" height="15" fill="#E1F5FE" stroke="#29B6F6" stroke-width="1" />
  <text x="730" y="1081" font-family="Arial" font-size="9" text-anchor="middle">決裁結果通知</text>
  
  <!-- システムへの矢印 -->
  <path d="M550,990 L550,1000 L800,1000 L1050,1000" stroke="#1E88E5" stroke-width="1.5" fill="none" marker-end="url(#system-arrow)" />
  <path d="M850,1110 L850,1120 L975,1120 L1050,1120" stroke="#1E88E5" stroke-width="1.5" fill="none" marker-end="url(#system-arrow)" />
  <path d="M970,1110 L970,1120" stroke="#1E88E5" stroke-width="1.5" fill="none" />
  
  <!-- ===== フェーズ4: 通知・交付 ===== -->
  <rect x="0" y="1170" width="100" height="380" fill="#e3f2fd" stroke="#333" stroke-width="1" />
  <text x="50" y="1360" font-family="Arial" font-size="14" font-weight="bold" text-anchor="middle" transform="rotate(-90,50,1360)">フェーズ4: 通知・交付</text>

  <!-- 背景グリッド -->
  <rect x="100" y="1170" width="180" height="380" fill="#fcfcfc" stroke="#ddd" stroke-width="0.5" stroke-dasharray="3,3" />
  <rect x="280" y="1170" width="180" height="380" fill="#fcfcfc" stroke="#ddd" stroke-width="0.5" stroke-dasharray="3,3" />
  <rect x="460" y="1170" width="180" height="380" fill="#fcfcfc" stroke="#ddd" stroke-width="0.5" stroke-dasharray="3,3" />
  <rect x="640" y="1170" width="180" height="380" fill="#fcfcfc" stroke="#ddd" stroke-width="0.5" stroke-dasharray="3,3" />
  <rect x="820" y="1170" width="180" height="380" fill="#fcfcfc" stroke="#ddd" stroke-width="0.5" stroke-dasharray="3,3" />
  <rect x="1000" y="1170" width="200" height="380" fill="#fcfcfc" stroke="#ddd" stroke-width="0.5" stroke-dasharray="3,3" />

  <!-- 結果通知の分岐（菱形） - 横に配置 -->
  <polygon points="550,1200 570,1220 550,1240 530,1220" fill="#f5faff" stroke="#2196F3" stroke-width="1.5" />
  <text x="550" y="1225" font-family="Arial" font-size="10" text-anchor="middle">決裁結果</text>
  <text x="515" y="1220" font-family="Arial" font-size="10" text-anchor="middle">却下</text>
  <text x="585" y="1220" font-family="Arial" font-size="10" text-anchor="middle">承認</text>
  
  <!-- 住民（申請者） フェーズ4 -->
  <rect x="140" y="1350" width="100" height="40" rx="3" ry="3" fill="#f5faff" stroke="#2196F3" stroke-width="1.5" />
  <text x="190" y="1368" font-family="Arial" font-size="12" text-anchor="middle">4.6 結果通知</text>
  <text x="190" y="1385" font-family="Arial" font-size="12" text-anchor="middle">受領</text>
  
  <rect x="140" y="1430" width="100" height="40" rx="3" ry="3" fill="#f5faff" stroke="#2196F3" stroke-width="1.5" />
  <text x="190" y="1448" font-family="Arial" font-size="12" text-anchor="middle">4.9 証明書等</text>
  <text x="190" y="1465" font-family="Arial" font-size="12" text-anchor="middle">受取</text>
  
  <!-- 窓口職員 フェーズ4 -->
  <rect x="320" y="1270" width="100" height="40" rx="3" ry="3" fill="#f5faff" stroke="#2196F3" stroke-width="1.5" />
  <text x="370" y="1288" font-family="Arial" font-size="12" text-anchor="middle">4.3 通知書</text>
  <text x="370" y="1305" font-family="Arial" font-size="12" text-anchor="middle">発送準備</text>
  
  <rect x="320" y="1350" width="100" height="40" rx="3" ry="3" fill="#f5faff" stroke="#2196F3" stroke-width="1.5" />
  <text x="370" y="1368" font-family="Arial" font-size="12" text-anchor="middle">4.5 通知書</text>
  <text x="370" y="1385" font-family="Arial" font-size="12" text-anchor="middle">発送/交付</text>
  
  <rect x="320" y="1430" width="100" height="40" rx="3" ry="3" fill="#f5faff" stroke="#2196F3" stroke-width="1.5" />
  <text x="370" y="1448" font-family="Arial" font-size="12" text-anchor="middle">4.8 証明書等</text>
  <text x="370" y="1465" font-family="Arial" font-size="12" text-anchor="middle">交付</text>
  
  <!-- 担当課職員 フェーズ4 - 分岐に合わせて左右に配置 -->
  <rect x="450" y="1270" width="100" height="40" rx="3" ry="3" fill="#f5faff" stroke="#2196F3" stroke-width="1.5" />
  <text x="500" y="1288" font-family="Arial" font-size="12" text-anchor="middle">4.1a 却下通知書</text>
  <text x="500" y="1305" font-family="Arial" font-size="12" text-anchor="middle">作成</text>
  
  <rect x="550" y="1270" width="100" height="40" rx="3" ry="3" fill="#f5faff" stroke="#2196F3" stroke-width="1.5" />
  <text x="600" y="1288" font-family="Arial" font-size="12" text-anchor="middle">4.1b 承認通知書</text>
  <text x="600" y="1305" font-family="Arial" font-size="12" text-anchor="middle">・証明書作成</text>
  
  <rect x="500" y="1350" width="100" height="40" rx="3" ry="3" fill="#f5faff" stroke="#2196F3" stroke-width="1.5" />
  <text x="550" y="1368" font-family="Arial" font-size="12" text-anchor="middle">4.4 交付物確認</text>
  <text x="550" y="1385" font-family="Arial" font-size="12" text-anchor="middle">記録</text>
  
  <rect x="500" y="1430" width="100" height="40" rx="3" ry="3" fill="#f5faff" stroke="#2196F3" stroke-width="1.5" />
  <text x="550" y="1448" font-family="Arial" font-size="12" text-anchor="middle">4.7 申請処理</text>
  <text x="550" y="1465" font-family="Arial" font-size="12" text-anchor="middle">完了登録</text>

  <!-- システム フェーズ4 - 統一した青色 -->
  <!-- 通知情報DB -->
  <g class="database">
    <!-- Cylinder body -->
    <path d="M1050,1270 L1050,1320 A50,10 0 0,0 1150,1320 L1150,1270 Z" fill="#2196F3" stroke="#0D47A1" stroke-width="2" stroke-linejoin="round"/>
    <!-- Top ellipse -->
    <ellipse cx="1100" cy="1270" rx="50" ry="10" fill="#2196F3" stroke="#0D47A1" stroke-width="2"/>
    <!-- Text -->
    <text x="1100" y="1295" font-family="Arial" font-size="12" text-anchor="middle" fill="white" font-weight="bold">通知情報DB</text>
  </g>
  
  <!-- 処理完了DB -->
  <g class="database">
    <!-- Cylinder body -->
    <path d="M1050,1430 L1050,1480 A50,10 0 0,0 1150,1480 L1150,1430 Z" fill="#2196F3" stroke="#0D47A1" stroke-width="2" stroke-linejoin="round"/>
    <!-- Top ellipse -->
    <ellipse cx="1100" cy="1430" rx="50" ry="10" fill="#2196F3" stroke="#0D47A1" stroke-width="2"/>
    <!-- Text -->
    <text x="1100" y="1455" font-family="Arial" font-size="12" text-anchor="middle" fill="white" font-weight="bold">処理完了DB</text>
  </g>
  
  <!-- フェーズ4の矢印 - 垂直方向 -->
  <path d="M550,1110 L550,1200" stroke="#333" stroke-width="1.5" marker-end="url(#arrow)" />
  <path d="M370,1310 L370,1350" stroke="#333" stroke-width="1.5" marker-end="url(#arrow)" />
  <path d="M370,1390 L370,1430" stroke="#333" stroke-width="1.5" marker-end="url(#arrow)" />
  <path d="M550,1390 L550,1430" stroke="#333" stroke-width="1.5" marker-end="url(#arrow)" />
  
  <!-- フェーズ4の矢印 - 水平方向と分岐（修正：4.1aと4.1bの矢印経路を改善） -->
  <!-- 左側への分岐（却下） -->
  <path d="M530,1220 L500,1220 L500,1270" stroke="#333" stroke-width="1.5" fill="none" marker-end="url(#arrow)" />
  
  <!-- 右側への分岐（承認） -->
  <path d="M570,1220 L600,1220 L600,1270" stroke="#333" stroke-width="1.5" fill="none" marker-end="url(#arrow)" />
  
  <!-- 窓口職員への矢印 -->
  <path d="M500,1310 L500,1325 L370,1325 L370,1350" stroke="#333" stroke-width="1.5" fill="none" marker-end="url(#arrow)" />
  
  <!-- 帳票表示 - 却下通知書 -->
  <rect x="435" y="1325" width="60" height="15" fill="#E1F5FE" stroke="#29B6F6" stroke-width="1" />
  <text x="465" y="1336" font-family="Arial" font-size="9" text-anchor="middle">却下通知書</text>
  
  <!-- 窓口職員への矢印（承認経路） -->
  <path d="M600,1310 L600,1325 L370,1325 L370,1350" stroke="#333" stroke-width="1.5" fill="none" marker-end="url(#arrow)" />
  
  <!-- 帳票表示 - 承認通知書 -->
  <rect x="500" y="1325" width="60" height="15" fill="#E1F5FE" stroke="#29B6F6" stroke-width="1" />
  <text x="530" y="1336" font-family="Arial" font-size="9" text-anchor="middle">承認通知書</text>
  
  <!-- 4.4への矢印 -->
  <path d="M420,1370 L500,1370" stroke="#333" stroke-width="1.5" fill="none" marker-end="url(#arrow)" />
  
  <!-- 帳票表示 - 証明書 -->
  <rect x="425" y="1350" width="40" height="15" fill="#FFF9C4" stroke="#FBC02D" stroke-width="1" />
  <text x="445" y="1361" font-family="Arial" font-size="9" text-anchor="middle">証明書</text>
  
  <!-- 住民への矢印 -->
  <path d="M320,1370 L240,1370" stroke="#333" stroke-width="1.5" fill="none" marker-end="url(#arrow)" />
  
  <!-- 帳票表示 - 結果通知 -->
  <rect x="260" y="1350" width="50" height="15" fill="#E1F5FE" stroke="#29B6F6" stroke-width="1" />
  <text x="285" y="1361" font-family="Arial" font-size="9" text-anchor="middle">結果通知</text>
  
  <path d="M320,1450 L240,1450" stroke="#333" stroke-width="1.5" fill="none" marker-end="url(#arrow)" />
  
  <!-- 帳票表示 - 証明書 -->
  <rect x="260" y="1430" width="50" height="15" fill="#FFF9C4" stroke="#FBC02D" stroke-width="1" />
  <text x="285" y="1441" font-family="Arial" font-size="9" text-anchor="middle">証明書</text>
  
  <!-- 処理完了への矢印 -->
  <path d="M420,1450 L500,1450" stroke="#333" stroke-width="1.5" fill="none" marker-end="url(#arrow)" />
  
  <!-- フローの終了マーカー -->
  <circle cx="190" cy="1500" r="15" fill="#2196F3" stroke="#0D47A1" stroke-width="1.5" />
  <text x="190" y="1504" font-family="Arial" font-size="14" font-weight="bold" fill="white" text-anchor="middle">終了</text>
  
  <!-- 終了への矢印 -->
  <path d="M190,1470 L190,1485" stroke="#333" stroke-width="1.5" marker-end="url(#arrow)" />
  
  <!-- システムへの矢印 -->
  <path d="M500,1310 L500,1320 L800,1320 L1050,1320" stroke="#1E88E5" stroke-width="1.5" fill="none" marker-end="url(#system-arrow)" />
  <path d="M600,1450 L1050,1450" stroke="#1E88E5" stroke-width="1.5" fill="none" marker-end="url(#system-arrow)" />
  
  <!-- フェーズ間の接続矢印 - 修正：通常の矢印に変更 -->
  <path d="M550,420 L550,470" stroke="#333" stroke-width="1.5" fill="none" marker-end="url(#arrow)" />
  <path d="M730,800 L730,830 L550,830 L550,890" stroke="#333" stroke-width="1.5" fill="none" marker-end="url(#arrow)" />
  
  <!-- 処理ステータス表示 - 各フェーズのメインステータス -->
  <rect x="1000" y="430" width="180" height="30" rx="3" ry="3" fill="#f5faff" stroke="#2196F3" stroke-width="1" />
  <text x="1090" y="450" font-family="Arial" font-size="12" text-anchor="middle" font-weight="bold">処理状況：受付完了</text>
  
  <rect x="1000" y="830" width="180" height="30" rx="3" ry="3" fill="#f5faff" stroke="#2196F3" stroke-width="1" />
  <text x="1090" y="850" font-family="Arial" font-size="12" text-anchor="middle" font-weight="bold">処理状況：審査完了</text>
  
  <rect x="1000" y="1130" width="180" height="30" rx="3" ry="3" fill="#f5faff" stroke="#2196F3" stroke-width="1" />
  <text x="1090" y="1150" font-family="Arial" font-size="12" text-anchor="middle" font-weight="bold">処理状況：決裁完了</text>
  
  <rect x="1000" y="1510" width="180" height="30" rx="3" ry="3" fill="#f5faff" stroke="#2196F3" stroke-width="1" />
  <text x="1090" y="1530" font-family="Arial" font-size="12" text-anchor="middle" font-weight="bold">処理状況：処理完了</text>
  
  <!-- 凡例（修正：添付画像の通りに整理） -->
  <rect x="100" y="1570" width="1000" height="90" rx="5" ry="5" fill="#f8f9fa" stroke="#777" stroke-width="1" />
  <text x="600" y="1590" font-family="Arial" font-size="16" font-weight="bold" text-anchor="middle">申請処理業務フロー図凡例</text>
  
  <!-- 凡例項目の再配置 - 添付画像を参考に横一列に整理 -->
  <rect x="150" y="1620" width="70" height="30" rx="3" ry="3" fill="#f5faff" stroke="#2196F3" stroke-width="1.5" />
  <text x="185" y="1640" font-family="Arial" font-size="10" text-anchor="middle">業務タスク</text>
  
  <polygon points="300,1620 320,1635 300,1650 280,1635" fill="#f5faff" stroke="#2196F3" stroke-width="1.5" />
  <text x="345" y="1640" font-family="Arial" font-size="10" text-anchor="middle">判断/分岐</text>
  
  <!-- システムDB - 凡例用 -->
  <g class="database" transform="translate(0, 0)">
    <path d="M435,1625 L435,1645 A25,8 0 0,0 485,1645 L485,1625 Z" fill="#2196F3" stroke="#0D47A1" stroke-width="2" stroke-linejoin="round"/>
    <ellipse cx="460" cy="1625" rx="25" ry="8" fill="#2196F3" stroke="#0D47A1" stroke-width="2"/>
  </g>
  <text x="530" y="1640" font-family="Arial" font-size="10" text-anchor="middle">システムDB</text>
  
  <!-- 矢印の凡例 - 横に並べる -->
  <path d="M600,1635 L640,1635" stroke="#333" stroke-width="1.5" marker-end="url(#arrow)" />
  <text x="670" y="1640" font-family="Arial" font-size="10" text-anchor="middle">業務の流れ</text>
  
  <path d="M730,1635 L770,1635" stroke="#1E88E5" stroke-width="1.5" marker-end="url(#system-arrow)" />
  <text x="810" y="1640" font-family="Arial" font-size="10" text-anchor="middle">システム連携</text>
  
  <!-- 帳票の凡例 -->
  <rect x="850" y="1628" width="40" height="15" fill="#FFF9C4" stroke="#FBC02D" stroke-width="1" />
  <text x="870" y="1640" font-family="Arial" font-size="8" text-anchor="middle">申請書類</text>
  
  <rect x="910" y="1628" width="40" height="15" fill="#E1F5FE" stroke="#29B6F6" stroke-width="1" />
  <text x="930" y="1640" font-family="Arial" font-size="8" text-anchor="middle">内部文書</text>
  
  <circle cx="980" cy="1635" r="12" fill="#2196F3" stroke="#0D47A1" stroke-width="1.5" />
  <text x="980" y="1639" font-family="Arial" font-size="10" font-weight="bold" fill="white" text-anchor="middle">始/終</text>
  
  <!-- 注記 -->
  <rect x="100" y="1670" width="1000" height="20" fill="#f8f9fa" stroke="none" />
  <text x="600" y="1685" font-family="Arial" font-size="12" text-anchor="middle" font-style="italic">注: 自治体によって申請手続きの詳細は異なります。例外処理（差戻し等）は別途規定されています。</text>
  
  <!-- バージョン情報 -->
  <text x="1180" y="1695" font-family="Arial" font-size="10" text-anchor="end" fill="#333">Ver 3.0</text>
  
  <!-- 矢印マーカーの定義 -->
  <defs>
    <marker id="arrow" markerWidth="10" markerHeight="10" refX="9" refY="3" orient="auto" markerUnits="strokeWidth">
      <path d="M0,0 L0,6 L9,3 z" fill="#333" />
    </marker>
    <marker id="system-arrow" markerWidth="10" markerHeight="10" refX="9" refY="3" orient="auto" markerUnits="strokeWidth">
      <path d="M0,0 L0,6 L9,3 z" fill="#1E88E5" />
    </marker>
  </defs>
</svg>