<?xml version="1.0" encoding="UTF-8"?>
<svg xmlns="http://www.w3.org/2000/svg" viewBox="0 0 1400 2000" width="1400" height="2000">
  <!-- 全体的な背景 -->
  <rect x="0" y="0" width="1400" height="2000" fill="#ffffff" />
  
  <!-- ヘッダー部分 -->
  <rect x="0" y="0" width="1400" height="60" fill="#f0f0f0" stroke="#333" stroke-width="1" />
  <text x="10" y="35" font-family="Arial" font-size="18" font-weight="bold">対象プロセス: 大手企業におけるアプリ開発委託業務フロー</text>
  <text x="680" y="35" font-family="Arial" font-size="14" font-weight="bold">更新日: 2025/7/21</text>
  <text x="930" y="35" font-family="Arial" font-size="14" font-weight="bold">承認: IT企画部長</text>
  <text x="1180" y="35" font-family="Arial" font-size="14" font-weight="bold">作成: DX推進課</text>

  <!-- カラムヘッダー -->
  <rect x="0" y="60" width="100" height="60" fill="#e0e0e0" stroke="#333" stroke-width="1" />
  <rect x="100" y="60" width="200" height="60" fill="#e0e0e0" stroke="#333" stroke-width="1" />
  <rect x="300" y="60" width="200" height="60" fill="#e0e0e0" stroke="#333" stroke-width="1" />
  <rect x="500" y="60" width="200" height="60" fill="#e0e0e0" stroke="#333" stroke-width="1" />
  <rect x="700" y="60" width="200" height="60" fill="#e0e0e0" stroke="#333" stroke-width="1" />
  <rect x="900" y="60" width="200" height="60" fill="#e0e0e0" stroke="#333" stroke-width="1" />
  <rect x="1100" y="60" width="300" height="60" fill="#e0e0e0" stroke="#333" stroke-width="1" />
  
  <text x="50" y="95" font-family="Arial" font-size="14" font-weight="bold" text-anchor="middle">フェーズ</text>
  <text x="200" y="95" font-family="Arial" font-size="14" font-weight="bold" text-anchor="middle">事業部門</text>
  <text x="400" y="95" font-family="Arial" font-size="14" font-weight="bold" text-anchor="middle">IT企画部</text>
  <text x="600" y="95" font-family="Arial" font-size="14" font-weight="bold" text-anchor="middle">調達・法務</text>
  <text x="800" y="95" font-family="Arial" font-size="14" font-weight="bold" text-anchor="middle">外部ベンダ</text>
  <text x="1000" y="95" font-family="Arial" font-size="14" font-weight="bold" text-anchor="middle">プロジェクト管理</text>
  <text x="1250" y="95" font-family="Arial" font-size="14" font-weight="bold" text-anchor="middle">システム</text>

  <!-- ===== フェーズ1: 企画・要件定義 ===== -->
  <rect x="0" y="120" width="100" height="400" fill="#e3f2fd" stroke="#333" stroke-width="1" />
  <text x="50" y="320" font-family="Arial" font-size="14" font-weight="bold" text-anchor="middle" transform="rotate(-90,50,320)">フェーズ1: 企画・要件定義</text>

  <!-- 背景グリッド -->
  <rect x="100" y="120" width="200" height="400" fill="#fcfcfc" stroke="#ddd" stroke-width="0.5" stroke-dasharray="3,3" />
  <rect x="300" y="120" width="200" height="400" fill="#fcfcfc" stroke="#ddd" stroke-width="0.5" stroke-dasharray="3,3" />
  <rect x="500" y="120" width="200" height="400" fill="#fcfcfc" stroke="#ddd" stroke-width="0.5" stroke-dasharray="3,3" />
  <rect x="700" y="120" width="200" height="400" fill="#fcfcfc" stroke="#ddd" stroke-width="0.5" stroke-dasharray="3,3" />
  <rect x="900" y="120" width="200" height="400" fill="#fcfcfc" stroke="#ddd" stroke-width="0.5" stroke-dasharray="3,3" />
  <rect x="1100" y="120" width="300" height="400" fill="#fcfcfc" stroke="#ddd" stroke-width="0.5" stroke-dasharray="3,3" />

  <!-- フローの開始マーカー -->
  <circle cx="200" cy="150" r="15" fill="#2196F3" stroke="#0D47A1" stroke-width="1.5" />
  <text x="200" y="154" font-family="Arial" font-size="14" font-weight="bold" fill="white" text-anchor="middle">開始</text>

  <!-- 事業部門 フェーズ1 -->
  <rect x="150" y="180" width="100" height="40" rx="3" ry="3" fill="#f5faff" stroke="#2196F3" stroke-width="1.5" />
  <text x="200" y="198" font-family="Arial" font-size="12" text-anchor="middle" font-weight="bold">1.1 アプリ企画</text>
  <text x="200" y="215" font-family="Arial" font-size="12" text-anchor="middle">ビジネス要件整理</text>
  
  <rect x="150" y="240" width="100" height="40" rx="3" ry="3" fill="#f5faff" stroke="#2196F3" stroke-width="1.5" />
  <text x="200" y="258" font-family="Arial" font-size="12" text-anchor="middle">1.2 要件整理書</text>
  <text x="200" y="275" font-family="Arial" font-size="12" text-anchor="middle">作成</text>
  
  <!-- IT企画部 フェーズ1 -->
  <rect x="350" y="240" width="100" height="40" rx="3" ry="3" fill="#f5faff" stroke="#2196F3" stroke-width="1.5" />
  <text x="400" y="258" font-family="Arial" font-size="12" text-anchor="middle">1.3 技術要件</text>
  <text x="400" y="275" font-family="Arial" font-size="12" text-anchor="middle">検討</text>
  
  <rect x="350" y="320" width="100" height="40" rx="3" ry="3" fill="#f5faff" stroke="#2196F3" stroke-width="1.5" />
  <text x="400" y="338" font-family="Arial" font-size="12" text-anchor="middle">1.4 開発方針</text>
  <text x="400" y="355" font-family="Arial" font-size="12" text-anchor="middle">決定</text>
  
  <rect x="350" y="380" width="100" height="40" rx="3" ry="3" fill="#f5faff" stroke="#2196F3" stroke-width="1.5" />
  <text x="400" y="398" font-family="Arial" font-size="12" text-anchor="middle">1.5 RFP作成</text>
  <text x="400" y="415" font-family="Arial" font-size="12" text-anchor="middle">依頼</text>

  <!-- 調達・法務 フェーズ1 -->
  <rect x="550" y="460" width="100" height="40" rx="3" ry="3" fill="#f5faff" stroke="#2196F3" stroke-width="1.5" />
  <text x="600" y="478" font-family="Arial" font-size="12" text-anchor="middle">1.6 RFP最終化</text>
  <text x="600" y="495" font-family="Arial" font-size="12" text-anchor="middle">法務チェック</text>

  <!-- システム フェーズ1 -->
  <!-- 企画情報DB -->
  <g class="database">
    <path d="M1150,180 L1150,230 A50,10 0 0,0 1250,230 L1250,180 Z" fill="#2196F3" stroke="#0D47A1" stroke-width="2" stroke-linejoin="round"/>
    <ellipse cx="1200" cy="180" rx="50" ry="10" fill="#2196F3" stroke="#0D47A1" stroke-width="2"/>
    <text x="1200" y="205" font-family="Arial" font-size="12" text-anchor="middle" fill="white" font-weight="bold">企画情報DB</text>
  </g>
  
  <!-- 要件管理DB -->
  <g class="database">
    <path d="M1150,260 L1150,310 A50,10 0 0,0 1250,310 L1250,260 Z" fill="#2196F3" stroke="#0D47A1" stroke-width="2" stroke-linejoin="round"/>
    <ellipse cx="1200" cy="260" rx="50" ry="10" fill="#2196F3" stroke="#0D47A1" stroke-width="2"/>
    <text x="1200" y="285" font-family="Arial" font-size="12" text-anchor="middle" fill="white" font-weight="bold">要件管理DB</text>
  </g>

  <!-- フェーズ1の矢印 - 修正版（直交線のみ） -->
  <path d="M200,165 L200,180" stroke="#333" stroke-width="1.5" marker-end="url(#arrow)" />
  <path d="M200,220 L200,240" stroke="#333" stroke-width="1.5" marker-end="url(#arrow)" />
  <path d="M250,260 L350,260" stroke="#333" stroke-width="1.5" fill="none" marker-end="url(#arrow)" />
  <path d="M400,280 L400,320" stroke="#333" stroke-width="1.5" marker-end="url(#arrow)" />
  <path d="M400,360 L400,380" stroke="#333" stroke-width="1.5" marker-end="url(#arrow)" />
  <!-- 1.5から1.6への矢印（直交線） -->
  <path d="M450,400 L520,400 L520,460 L550,460" stroke="#333" stroke-width="1.5" fill="none" marker-end="url(#arrow)" />

  <!-- 帳票表示 -->
  <path d="M270,240 L310,240 L320,250 L320,260 L270,260 Z M310,240 L310,250 L320,250" fill="#FFF9C4" stroke="#FBC02D" stroke-width="1"/>
  <text x="295" y="255" font-family="Arial" font-size="9" text-anchor="middle">要件整理書</text>

  <path d="M470,380 L520,380 L530,390 L530,400 L470,400 Z M520,380 L520,390 L530,390" fill="#E1F5FE" stroke="#29B6F6" stroke-width="1"/>
  <text x="500" y="395" font-family="Arial" font-size="9" text-anchor="middle">RFP依頼書</text>

  <!-- システムへの矢印（水平線のみ） -->
  <path d="M250,200 L1150,200" stroke="#1E88E5" stroke-width="1.5" fill="none" marker-end="url(#system-arrow)" />
  <path d="M450,280 L1150,280" stroke="#1E88E5" stroke-width="1.5" fill="none" marker-end="url(#system-arrow)" />

  <!-- ===== フェーズ2: ベンダ選定・契約 ===== -->
  <rect x="0" y="520" width="100" height="450" fill="#e3f2fd" stroke="#333" stroke-width="1" />
  <text x="50" y="745" font-family="Arial" font-size="14" font-weight="bold" text-anchor="middle" transform="rotate(-90,50,745)">フェーズ2: ベンダ選定・契約</text>

  <!-- 背景グリッド -->
  <rect x="100" y="520" width="200" height="450" fill="#fcfcfc" stroke="#ddd" stroke-width="0.5" stroke-dasharray="3,3" />
  <rect x="300" y="520" width="200" height="450" fill="#fcfcfc" stroke="#ddd" stroke-width="0.5" stroke-dasharray="3,3" />
  <rect x="500" y="520" width="200" height="450" fill="#fcfcfc" stroke="#ddd" stroke-width="0.5" stroke-dasharray="3,3" />
  <rect x="700" y="520" width="200" height="450" fill="#fcfcfc" stroke="#ddd" stroke-width="0.5" stroke-dasharray="3,3" />
  <rect x="900" y="520" width="200" height="450" fill="#fcfcfc" stroke="#ddd" stroke-width="0.5" stroke-dasharray="3,3" />
  <rect x="1100" y="520" width="300" height="450" fill="#fcfcfc" stroke="#ddd" stroke-width="0.5" stroke-dasharray="3,3" />

  <!-- 調達・法務 フェーズ2 -->
  <rect x="550" y="540" width="100" height="40" rx="3" ry="3" fill="#f5faff" stroke="#2196F3" stroke-width="1.5" />
  <text x="600" y="558" font-family="Arial" font-size="12" text-anchor="middle">2.1 RFP発行</text>
  <text x="600" y="575" font-family="Arial" font-size="12" text-anchor="middle">ベンダ募集</text>

  <!-- 外部ベンダ フェーズ2 -->
  <rect x="750" y="600" width="100" height="40" rx="3" ry="3" fill="#f5faff" stroke="#2196F3" stroke-width="1.5" />
  <text x="800" y="618" font-family="Arial" font-size="12" text-anchor="middle">2.2 提案書作成</text>
  <text x="800" y="635" font-family="Arial" font-size="12" text-anchor="middle">見積提出</text>

  <!-- IT企画部 フェーズ2 -->
  <rect x="350" y="680" width="100" height="40" rx="3" ry="3" fill="#f5faff" stroke="#2196F3" stroke-width="1.5" />
  <text x="400" y="698" font-family="Arial" font-size="12" text-anchor="middle">2.3 提案評価</text>
  <text x="400" y="715" font-family="Arial" font-size="12" text-anchor="middle">技術審査</text>

  <!-- 選定の分岐 -->
  <polygon points="400,750 420,770 400,790 380,770" fill="#f5faff" stroke="#2196F3" stroke-width="1.5" />
  <text x="400" y="775" font-family="Arial" font-size="10" text-anchor="middle">ベンダ選定</text>
  <text x="330" y="795" font-family="Arial" font-size="9" text-anchor="middle" fill="#333">再募集</text>
  <text x="470" y="795" font-family="Arial" font-size="9" text-anchor="middle" fill="#333">決定</text>

  <rect x="300" y="820" width="100" height="40" rx="3" ry="3" fill="#f5faff" stroke="#2196F3" stroke-width="1.5" />
  <text x="350" y="838" font-family="Arial" font-size="12" text-anchor="middle">2.4a 再RFP</text>
  <text x="350" y="855" font-family="Arial" font-size="12" text-anchor="middle">要件見直し</text>

  <rect x="450" y="820" width="100" height="40" rx="3" ry="3" fill="#f5faff" stroke="#2196F3" stroke-width="1.5" />
  <text x="500" y="838" font-family="Arial" font-size="12" text-anchor="middle">2.4b ベンダ決定</text>
  <text x="500" y="855" font-family="Arial" font-size="12" text-anchor="middle">通知</text>

  <!-- 調達・法務 契約 -->
  <rect x="550" y="900" width="100" height="40" rx="3" ry="3" fill="#f5faff" stroke="#2196F3" stroke-width="1.5" />
  <text x="600" y="918" font-family="Arial" font-size="12" text-anchor="middle">2.5 契約書作成</text>
  <text x="600" y="935" font-family="Arial" font-size="12" text-anchor="middle">法務審査</text>

  <!-- システム フェーズ2 -->
  <!-- ベンダ管理DB -->
  <g class="database">
    <path d="M1150,600 L1150,650 A50,10 0 0,0 1250,650 L1250,600 Z" fill="#2196F3" stroke="#0D47A1" stroke-width="2" stroke-linejoin="round"/>
    <ellipse cx="1200" cy="600" rx="50" ry="10" fill="#2196F3" stroke="#0D47A1" stroke-width="2"/>
    <text x="1200" y="625" font-family="Arial" font-size="12" text-anchor="middle" fill="white" font-weight="bold">ベンダ管理DB</text>
  </g>

  <!-- 契約管理DB -->
  <g class="database">
    <path d="M1150,900 L1150,950 A50,10 0 0,0 1250,950 L1250,900 Z" fill="#2196F3" stroke="#0D47A1" stroke-width="2" stroke-linejoin="round"/>
    <ellipse cx="1200" cy="900" rx="50" ry="10" fill="#2196F3" stroke="#0D47A1" stroke-width="2"/>
    <text x="1200" y="925" font-family="Arial" font-size="12" text-anchor="middle" fill="white" font-weight="bold">契約管理DB</text>
  </g>

  <!-- フェーズ2の矢印 - 修正版（直交線のみ） -->
  <!-- 2.1から2.2への矢印 -->
  <path d="M650,560 L720,560 L720,600 L750,600" stroke="#333" stroke-width="1.5" fill="none" marker-end="url(#arrow)" />
  <!-- 2.2から2.3への矢印 -->
  <path d="M750,620 L720,620 L720,700 L450,700" stroke="#333" stroke-width="1.5" fill="none" marker-end="url(#arrow)" />
  <path d="M400,720 L400,750" stroke="#333" stroke-width="1.5" marker-end="url(#arrow)" />

  <!-- 分岐の矢印（直交線） -->
  <path d="M380,770 L350,770 L350,820" stroke="#333" stroke-width="1.5" fill="none" marker-end="url(#arrow)" />
  <path d="M420,770 L500,770 L500,820" stroke="#333" stroke-width="1.5" fill="none" marker-end="url(#arrow)" />
  <!-- 2.4bから2.5への矢印 -->
  <path d="M550,840 L600,840 L600,900" stroke="#333" stroke-width="1.5" fill="none" marker-end="url(#arrow)" />

  <!-- 帳票表示 -->
  <path d="M670,540 L720,540 L730,550 L730,560 L670,560 Z M720,540 L720,550 L730,550" fill="#FFF9C4" stroke="#FBC02D" stroke-width="1"/>
  <text x="700" y="555" font-family="Arial" font-size="9" text-anchor="middle">RFP</text>

  <path d="M670,600 L720,600 L730,610 L730,620 L670,620 Z M720,600 L720,610 L730,610" fill="#FFF9C4" stroke="#FBC02D" stroke-width="1"/>
  <text x="700" y="615" font-family="Arial" font-size="9" text-anchor="middle">提案書</text>

  <path d="M570,820 L620,820 L630,830 L630,840 L570,840 Z M620,820 L620,830 L630,830" fill="#E1F5FE" stroke="#29B6F6" stroke-width="1"/>
  <text x="600" y="835" font-family="Arial" font-size="9" text-anchor="middle">選定通知</text>

  <!-- システムへの矢印（水平線のみ） -->
  <path d="M850,620 L1150,620" stroke="#1E88E5" stroke-width="1.5" fill="none" marker-end="url(#system-arrow)" />
  <path d="M650,920 L1150,920" stroke="#1E88E5" stroke-width="1.5" fill="none" marker-end="url(#system-arrow)" />

  <!-- ===== フェーズ3: 開発・テスト ===== -->
  <rect x="0" y="970" width="100" height="500" fill="#e3f2fd" stroke="#333" stroke-width="1" />
  <text x="50" y="1220" font-family="Arial" font-size="14" font-weight="bold" text-anchor="middle" transform="rotate(-90,50,1220)">フェーズ3: 開発・テスト</text>

  <!-- 背景グリッド -->
  <rect x="100" y="970" width="200" height="500" fill="#fcfcfc" stroke="#ddd" stroke-width="0.5" stroke-dasharray="3,3" />
  <rect x="300" y="970" width="200" height="500" fill="#fcfcfc" stroke="#ddd" stroke-width="0.5" stroke-dasharray="3,3" />
  <rect x="500" y="970" width="200" height="500" fill="#fcfcfc" stroke="#ddd" stroke-width="0.5" stroke-dasharray="3,3" />
  <rect x="700" y="970" width="200" height="500" fill="#fcfcfc" stroke="#ddd" stroke-width="0.5" stroke-dasharray="3,3" />
  <rect x="900" y="970" width="200" height="500" fill="#fcfcfc" stroke="#ddd" stroke-width="0.5" stroke-dasharray="3,3" />
  <rect x="1100" y="970" width="300" height="500" fill="#fcfcfc" stroke="#ddd" stroke-width="0.5" stroke-dasharray="3,3" />

  <!-- プロジェクト管理 フェーズ3 -->
  <rect x="950" y="1000" width="100" height="40" rx="3" ry="3" fill="#f5faff" stroke="#2196F3" stroke-width="1.5" />
  <text x="1000" y="1018" font-family="Arial" font-size="12" text-anchor="middle">3.1 キックオフ</text>
  <text x="1000" y="1035" font-family="Arial" font-size="12" text-anchor="middle">体制確立</text>

  <!-- 外部ベンダ フェーズ3 -->
  <rect x="750" y="1060" width="100" height="40" rx="3" ry="3" fill="#f5faff" stroke="#2196F3" stroke-width="1.5" />
  <text x="800" y="1078" font-family="Arial" font-size="12" text-anchor="middle">3.2 詳細設計</text>
  <text x="800" y="1095" font-family="Arial" font-size="12" text-anchor="middle">開発計画</text>

  <rect x="750" y="1140" width="100" height="40" rx="3" ry="3" fill="#f5faff" stroke="#2196F3" stroke-width="1.5" />
  <text x="800" y="1158" font-family="Arial" font-size="12" text-anchor="middle">3.3 アプリ開発</text>
  <text x="800" y="1175" font-family="Arial" font-size="12" text-anchor="middle">実装</text>

  <rect x="750" y="1220" width="100" height="40" rx="3" ry="3" fill="#f5faff" stroke="#2196F3" stroke-width="1.5" />
  <text x="800" y="1238" font-family="Arial" font-size="12" text-anchor="middle">3.4 ベンダテスト</text>
  <text x="800" y="1255" font-family="Arial" font-size="12" text-anchor="middle">品質確認</text>

  <!-- IT企画部・事業部門 フェーズ3 -->
  <rect x="350" y="1300" width="100" height="40" rx="3" ry="3" fill="#f5faff" stroke="#2196F3" stroke-width="1.5" />
  <text x="400" y="1318" font-family="Arial" font-size="12" text-anchor="middle">3.5 受入テスト</text>
  <text x="400" y="1335" font-family="Arial" font-size="12" text-anchor="middle">準備</text>

  <rect x="150" y="1380" width="100" height="40" rx="3" ry="3" fill="#f5faff" stroke="#2196F3" stroke-width="1.5" />
  <text x="200" y="1398" font-family="Arial" font-size="12" text-anchor="middle">3.6 UAT実施</text>
  <text x="200" y="1415" font-family="Arial" font-size="12" text-anchor="middle">動作確認</text>

  <!-- 受入判定の分岐 -->
  <polygon points="400,1420 420,1440 400,1460 380,1440" fill="#f5faff" stroke="#2196F3" stroke-width="1.5" />
  <text x="400" y="1445" font-family="Arial" font-size="10" text-anchor="middle">受入判定</text>
  <text x="330" y="1465" font-family="Arial" font-size="9" text-anchor="middle" fill="#333">修正</text>
  <text x="470" y="1465" font-family="Arial" font-size="9" text-anchor="middle" fill="#333">合格</text>

  <!-- システム フェーズ3 -->
  <!-- 開発管理DB -->
  <g class="database">
    <path d="M1150,1060 L1150,1110 A50,10 0 0,0 1250,1110 L1250,1060 Z" fill="#2196F3" stroke="#0D47A1" stroke-width="2" stroke-linejoin="round"/>
    <ellipse cx="1200" cy="1060" rx="50" ry="10" fill="#2196F3" stroke="#0D47A1" stroke-width="2"/>
    <text x="1200" y="1085" font-family="Arial" font-size="12" text-anchor="middle" fill="white" font-weight="bold">開発管理DB</text>
  </g>

  <!-- テスト結果DB -->
  <g class="database">
    <path d="M1150,1380 L1150,1430 A50,10 0 0,0 1250,1430 L1250,1380 Z" fill="#2196F3" stroke="#0D47A1" stroke-width="2" stroke-linejoin="round"/>
    <ellipse cx="1200" cy="1380" rx="50" ry="10" fill="#2196F3" stroke="#0D47A1" stroke-width="2"/>
    <text x="1200" y="1405" font-family="Arial" font-size="12" text-anchor="middle" fill="white" font-weight="bold">テスト結果DB</text>
  </g>

  <!-- フェーズ3の矢印 - 修正版（直交線のみ） -->
  <!-- 3.1から3.2への矢印 -->
  <path d="M950,1020 L900,1020 L900,1080 L850,1080" stroke="#333" stroke-width="1.5" fill="none" marker-end="url(#arrow)" />
  <path d="M800,1100 L800,1140" stroke="#333" stroke-width="1.5" marker-end="url(#arrow)" />
  <path d="M800,1180 L800,1220" stroke="#333" stroke-width="1.5" marker-end="url(#arrow)" />
  <!-- 3.4から3.5への矢印 -->
  <path d="M750,1240 L720,1240 L720,1320 L450,1320" stroke="#333" stroke-width="1.5" fill="none" marker-end="url(#arrow)" />
  <!-- 3.5から3.6への矢印 -->
  <path d="M350,1320 L320,1320 L320,1400 L250,1400" stroke="#333" stroke-width="1.5" fill="none" marker-end="url(#arrow)" />
  <!-- 3.6から判定への矢印 -->
  <path d="M250,1400 L380,1400 L380,1420" stroke="#333" stroke-width="1.5" fill="none" marker-end="url(#arrow)" />

  <!-- 分岐矢印（直交線） -->
  <!-- 修正ループ -->
  <path d="M380,1440 L320,1440 L320,1480 L800,1480 L800,1260" stroke="#333" stroke-width="1.5" fill="none" marker-end="url(#arrow)" />
  <!-- 合格 -->
  <path d="M420,1440 L500,1440 L500,1480 L400,1480 L400,1500" stroke="#333" stroke-width="1.5" fill="none" marker-end="url(#arrow)" />

  <!-- 帳票表示 -->
  <path d="M870,1060 L920,1060 L930,1070 L930,1080 L870,1080 Z M920,1060 L920,1070 L930,1070" fill="#E1F5FE" stroke="#29B6F6" stroke-width="1"/>
  <text x="900" y="1075" font-family="Arial" font-size="9" text-anchor="middle">設計書</text>

  <path d="M270,1380 L320,1380 L330,1390 L330,1400 L270,1400 Z M320,1380 L320,1390 L330,1390" fill="#E1F5FE" stroke="#29B6F6" stroke-width="1"/>
  <text x="300" y="1395" font-family="Arial" font-size="9" text-anchor="middle">テスト計画</text>

  <!-- システムへの矢印（水平線のみ） -->
  <path d="M850,1080 L1150,1080" stroke="#1E88E5" stroke-width="1.5" fill="none" marker-end="url(#system-arrow)" />
  <path d="M250,1400 L1150,1400" stroke="#1E88E5" stroke-width="1.5" fill="none" marker-end="url(#system-arrow)" />

  <!-- ===== フェーズ4: 導入・運用開始 ===== -->
  <rect x="0" y="1470" width="100" height="400" fill="#e3f2fd" stroke="#333" stroke-width="1" />
  <text x="50" y="1670" font-family="Arial" font-size="14" font-weight="bold" text-anchor="middle" transform="rotate(-90,50,1670)">フェーズ4: 導入・運用開始</text>

  <!-- 背景グリッド -->
  <rect x="100" y="1470" width="200" height="400" fill="#fcfcfc" stroke="#ddd" stroke-width="0.5" stroke-dasharray="3,3" />
  <rect x="300" y="1470" width="200" height="400" fill="#fcfcfc" stroke="#ddd" stroke-width="0.5" stroke-dasharray="3,3" />
  <rect x="500" y="1470" width="200" height="400" fill="#fcfcfc" stroke="#ddd" stroke-width="0.5" stroke-dasharray="3,3" />
  <rect x="700" y="1470" width="200" height="400" fill="#fcfcfc" stroke="#ddd" stroke-width="0.5" stroke-dasharray="3,3" />
  <rect x="900" y="1470" width="200" height="400" fill="#fcfcfc" stroke="#ddd" stroke-width="0.5" stroke-dasharray="3,3" />
  <rect x="1100" y="1470" width="300" height="400" fill="#fcfcfc" stroke="#ddd" stroke-width="0.5" stroke-dasharray="3,3" />

  <!-- IT企画部・外部ベンダ フェーズ4 -->
  <rect x="350" y="1500" width="100" height="40" rx="3" ry="3" fill="#f5faff" stroke="#2196F3" stroke-width="1.5" />
  <text x="400" y="1518" font-family="Arial" font-size="12" text-anchor="middle">4.1 本番環境</text>
  <text x="400" y="1535" font-family="Arial" font-size="12" text-anchor="middle">構築</text>

  <rect x="750" y="1500" width="100" height="40" rx="3" ry="3" fill="#f5faff" stroke="#2196F3" stroke-width="1.5" />
  <text x="800" y="1518" font-family="Arial" font-size="12" text-anchor="middle">4.2 アプリ</text>
  <text x="800" y="1535" font-family="Arial" font-size="12" text-anchor="middle">デプロイ</text>

  <rect x="350" y="1580" width="100" height="40" rx="3" ry="3" fill="#f5faff" stroke="#2196F3" stroke-width="1.5" />
  <text x="400" y="1598" font-family="Arial" font-size="12" text-anchor="middle">4.3 運用テスト</text>
  <text x="400" y="1615" font-family="Arial" font-size="12" text-anchor="middle">最終確認</text>

  <!-- 事業部門 フェーズ4 -->
  <rect x="150" y="1660" width="100" height="40" rx="3" ry="3" fill="#f5faff" stroke="#2196F3" stroke-width="1.5" />
  <text x="200" y="1678" font-family="Arial" font-size="12" text-anchor="middle">4.4 本格運用</text>
  <text x="200" y="1695" font-family="Arial" font-size="12" text-anchor="middle">開始</text>

  <rect x="150" y="1740" width="100" height="40" rx="3" ry="3" fill="#f5faff" stroke="#2196F3" stroke-width="1.5" />
  <text x="200" y="1758" font-family="Arial" font-size="12" text-anchor="middle">4.5 検収完了</text>
  <text x="200" y="1775" font-family="Arial" font-size="12" text-anchor="middle">プロジェクト終了</text>

  <!-- 外部ベンダ フェーズ4 -->
  <rect x="750" y="1740" width="100" height="40" rx="3" ry="3" fill="#f5faff" stroke="#2196F3" stroke-width="1.5" />
  <text x="800" y="1758" font-family="Arial" font-size="12" text-anchor="middle">4.6 保守引継</text>
  <text x="800" y="1775" font-family="Arial" font-size="12" text-anchor="middle">運用サポート</text>

  <!-- システム フェーズ4 -->
  <!-- 本番環境DB -->
  <g class="database">
    <path d="M1150,1580 L1150,1630 A50,10 0 0,0 1250,1630 L1250,1580 Z" fill="#2196F3" stroke="#0D47A1" stroke-width="2" stroke-linejoin="round"/>
    <ellipse cx="1200" cy="1580" rx="50" ry="10" fill="#2196F3" stroke="#0D47A1" stroke-width="2"/>
    <text x="1200" y="1605" font-family="Arial" font-size="12" text-anchor="middle" fill="white" font-weight="bold">本番環境DB</text>
  </g>

  <!-- 運用ログDB -->
  <g class="database">
    <path d="M1150,1740 L1150,1790 A50,10 0 0,0 1250,1790 L1250,1740 Z" fill="#2196F3" stroke="#0D47A1" stroke-width="2" stroke-linejoin="round"/>
    <ellipse cx="1200" cy="1740" rx="50" ry="10" fill="#2196F3" stroke="#0D47A1" stroke-width="2"/>
    <text x="1200" y="1765" font-family="Arial" font-size="12" text-anchor="middle" fill="white" font-weight="bold">運用ログDB</text>
  </g>

  <!-- フェーズ4の矢印 - 修正版（直交線のみ） -->
  <!-- 合格からの開始は上記の合格矢印に統合済み -->
  <!-- 4.1から4.2への矢印 -->
  <path d="M450,1520 L750,1520" stroke="#333" stroke-width="1.5" fill="none" marker-end="url(#arrow)" />
  <!-- 4.2から4.3への矢印 -->
  <path d="M800,1540 L800,1580 L450,1580" stroke="#333" stroke-width="1.5" fill="none" marker-end="url(#arrow)" />
  <path d="M400,1540 L400,1580" stroke="#333" stroke-width="1.5" marker-end="url(#arrow)" />
  <!-- 4.3から4.4への矢印 -->
  <path d="M350,1600 L320,1600 L320,1680 L250,1680" stroke="#333" stroke-width="1.5" fill="none" marker-end="url(#arrow)" />
  <path d="M200,1700 L200,1740" stroke="#333" stroke-width="1.5" marker-end="url(#arrow)" />
  <!-- 4.5から4.6への矢印 -->
  <path d="M250,1760 L750,1760" stroke="#333" stroke-width="1.5" fill="none" marker-end="url(#arrow)" />

  <!-- フローの終了マーカー -->
  <circle cx="200" cy="1820" r="15" fill="#2196F3" stroke="#0D47A1" stroke-width="1.5" />
  <text x="200" y="1824" font-family="Arial" font-size="14" font-weight="bold" fill="white" text-anchor="middle">終了</text>
  <path d="M200,1780 L200,1805" stroke="#333" stroke-width="1.5" marker-end="url(#arrow)" />

  <!-- 帳票表示 -->
  <path d="M470,1500 L520,1500 L530,1510 L530,1520 L470,1520 Z M520,1500 L520,1510 L530,1510" fill="#E1F5FE" stroke="#29B6F6" stroke-width="1"/>
  <text x="500" y="1515" font-family="Arial" font-size="9" text-anchor="middle">環境構築書</text>

  <path d="M270,1660 L320,1660 L330,1670 L330,1680 L270,1680 Z M320,1660 L320,1670 L330,1670" fill="#FFF9C4" stroke="#FBC02D" stroke-width="1"/>
  <text x="300" y="1675" font-family="Arial" font-size="9" text-anchor="middle">運用マニュアル</text>

  <path d="M270,1740 L320,1740 L330,1750 L330,1760 L270,1760 Z M320,1740 L320,1750 L330,1750" fill="#FFF9C4" stroke="#FBC02D" stroke-width="1"/>
  <text x="300" y="1755" font-family="Arial" font-size="9" text-anchor="middle">検収書</text>

  <!-- システムへの矢印（水平線のみ） -->
  <path d="M450,1600 L1150,1600" stroke="#1E88E5" stroke-width="1.5" fill="none" marker-end="url(#system-arrow)" />
  <!-- 運用ログDBへの矢印（高さ調整） -->
  <path d="M250,1680 L1020,1680 L1020,1760 L1150,1760" stroke="#1E88E5" stroke-width="1.5" fill="none" marker-end="url(#system-arrow)" />

  <!-- フェーズ間の接続矢印（直交線） -->
  <path d="M600,500 L600,540" stroke="#333" stroke-width="1.5" fill="none" marker-end="url(#arrow)" />
  <path d="M600,940 L600,970 L1000,970 L1000,1000" stroke="#333" stroke-width="1.5" fill="none" marker-end="url(#arrow)" />

  <!-- 矢印マーカーの定義 -->
  <defs>
    <marker id="arrow" markerWidth="10" markerHeight="10" refX="9" refY="3" orient="auto" markerUnits="strokeWidth">
      <path d="M0,0 L0,6 L9,3 z" fill="#333" />
    </marker>
    <marker id="system-arrow" markerWidth="10" markerHeight="10" refX="9" refY="3" orient="auto" markerUnits="strokeWidth">
      <path d="M0,0 L0,6 L9,3 z" fill="#1E88E5" />
    </marker>
  </defs>

  <!-- 凡例 -->
  <rect x="100" y="1890" width="1200" height="100" rx="5" ry="5" fill="#f8f9fa" stroke="#777" stroke-width="1" />
  <text x="700" y="1915" font-family="Arial" font-size="16" font-weight="bold" text-anchor="middle">アプリ開発委託業務フロー図凡例</text>
  
  <!-- 凡例項目 -->
  <rect x="150" y="1940" width="70" height="30" rx="3" ry="3" fill="#f5faff" stroke="#2196F3" stroke-width="1.5" />
  <text x="185" y="1960" font-family="Arial" font-size="10" text-anchor="middle">業務タスク</text>
  
  <polygon points="300,1940 320,1955 300,1970 280,1955" fill="#f5faff" stroke="#2196F3" stroke-width="1.5" />
  <text x="345" y="1960" font-family="Arial" font-size="10" text-anchor="middle">判断/分岐</text>
  
  <g class="database" transform="translate(0, 0)">
    <path d="M435,1945 L435,1965 A25,8 0 0,0 485,1965 L485,1945 Z" fill="#2196F3" stroke="#0D47A1" stroke-width="2" stroke-linejoin="round"/>
    <ellipse cx="460" cy="1945" rx="25" ry="8" fill="#2196F3" stroke="#0D47A1" stroke-width="2"/>
  </g>
  <text x="530" y="1960" font-family="Arial" font-size="10" text-anchor="middle">システムDB</text>
  
  <path d="M600,1955 L640,1955" stroke="#333" stroke-width="1.5" marker-end="url(#arrow)" />
  <text x="670" y="1960" font-family="Arial" font-size="10" text-anchor="middle">業務の流れ</text>
  
  <path d="M730,1955 L770,1955" stroke="#1E88E5" stroke-width="1.5" marker-end="url(#system-arrow)" />
  <text x="810" y="1960" font-family="Arial" font-size="10" text-anchor="middle">システム連携</text>
  
  <path d="M850,1948 L890,1948 L900,1953 L900,1963 L850,1963 Z M890,1948 L890,1953 L900,1953" fill="#FFF9C4" stroke="#FBC02D" stroke-width="1"/>
  <text x="920" y="1960" font-family="Arial" font-size="8" text-anchor="middle">外部文書</text>
  
  <path d="M980,1948 L1020,1948 L1030,1953 L1030,1963 L980,1963 Z M1020,1948 L1020,1953 L1030,1953" fill="#E1F5FE" stroke="#29B6F6" stroke-width="1"/>
  <text x="1050" y="1960" font-family="Arial" font-size="8" text-anchor="middle">内部文書</text>
  
  <circle cx="1110" cy="1955" r="12" fill="#2196F3" stroke="#0D47A1" stroke-width="1.5" />
  <text x="1110" y="1959" font-family="Arial" font-size="10" font-weight="bold" fill="white" text-anchor="middle">始/終</text>

  <text x="700" y="1985" font-family="Arial" font-size="12" text-anchor="middle" font-style="italic">注: 企業規模や業種によって手続きの詳細は異なります。リスク管理や品質保証のプロセスは別途規定されています。</text>

</svg>